<?xml version="1.0" encoding="UTF-8"?><svg id="Layer_2" xmlns="http://www.w3.org/2000/svg" viewBox="0 0 90 90"><defs><style>.cls-1{fill:#fff;}</style></defs><g id="Layer_1-2"><g><g><rect class="cls-1" x=".5" y=".5" width="89" height="89"/><path d="m89,1v88H1V1h88m1-1H0v90h90V0h0Z"/></g><g><path d="m28.12,26.69h-8.92v3.65h7.86v3.74h-7.86v7.13h-4.16v-18.24h13.08v3.72Z"/><path d="m46.78,41.21h-4.32l-1.11-3.47h-6.51l-1.04,3.47h-4.29l5.86-18.24h5.25l6.15,18.24Zm-6.53-6.99l-2.21-6.99-2.12,6.99h4.34Z"/><path d="m64.71,22.97l-6.33,18.24h-4.85l-6.09-18.24h4.43l4.14,13.01,4.23-13.01h4.47Z"/><path d="m75.46,41.21h-9.07v-3.54h2.46v-11.15h-2.43v-3.54h9.05v3.54h-2.46v11.15h2.46v3.54Z"/><path d="m34.4,62.12c-.56,1.99-1.39,3.45-2.5,4.36-1.22,1-2.93,1.5-5.11,1.5-2.61,0-4.61-.81-6-2.43-1.39-1.62-2.08-3.92-2.08-6.9,0-2.82.73-5.08,2.19-6.78,1.46-1.7,3.45-2.56,5.98-2.56,2.05,0,3.67.47,4.87,1.42,1.11.86,1.93,2.19,2.48,4.01l-3.87,1.37c-.32-1.15-.76-1.97-1.31-2.45s-1.27-.72-2.17-.72c-2.61,0-3.92,1.9-3.92,5.71s1.31,5.71,3.92,5.71c.94,0,1.69-.24,2.22-.73.54-.49.95-1.35,1.23-2.59l4.07,1.08Z"/><path d="m52.72,58.65c0,2.85-.7,5.1-2.1,6.77-1.46,1.71-3.48,2.57-6.06,2.57s-4.6-.86-6.06-2.57c-1.42-1.67-2.12-3.92-2.12-6.77s.72-5.12,2.16-6.81c1.44-1.69,3.45-2.53,6.03-2.53s4.6.86,6.06,2.57c1.4,1.67,2.1,3.92,2.1,6.77Zm-4.27,0c0-3.81-1.3-5.71-3.9-5.71s-3.92,1.9-3.92,5.71,1.31,5.71,3.92,5.71,3.9-1.9,3.9-5.71Z"/><path d="m70.63,67.76h-4.14l-6.64-10.93v10.93h-4.07v-18.24h4.12l6.64,11.13v-11.13h4.09v18.24Z"/></g></g></g></svg>