<svg width="90" height="29" fill="none" xmlns="http://www.w3.org/2000/svg"><g clip-path="url(#a)" fill="#1d92ff"><path d="M10.883 21.553c-.741-.618-1.848-1.057-3.319-1.329l-2.258-.427a5.099 5.099 0 0 1-1.99-.698 1.403 1.403 0 0 1-.597-1.207 1.89 1.89 0 0 1 .162-.802c.116-.247.298-.457.525-.608.295-.19.624-.325.968-.394a6.974 6.974 0 0 1 1.526-.143 8.254 8.254 0 0 1 1.68.162 8.94 8.94 0 0 1 1.345.385c.338.127.662.286.968.475.21.129.403.283.574.46a2.17 2.17 0 0 0 .526-.56c.185-.248.285-.55.284-.86a.972.972 0 0 0-.2-.608 2.326 2.326 0 0 0-.526-.488c-.11-.068-.277-.162-.506-.285a5.27 5.27 0 0 0-.91-.352 9.71 9.71 0 0 0-1.377-.295 12.955 12.955 0 0 0-1.9-.123 8.461 8.461 0 0 0-2.548.324 5.187 5.187 0 0 0-1.742.905c-.44.355-.783.814-1 1.336a4.253 4.253 0 0 0-.323 1.617A3.42 3.42 0 0 0 .61 19.67a3.5 3.5 0 0 0 .967 1.145 5.05 5.05 0 0 0 1.394.75c.532.192 1.08.335 1.639.427l2.225.404c.365.06.726.14 1.08.243.289.081.562.208.81.375.212.142.386.334.507.56a1.838 1.838 0 0 1-.587 2.263c-.508.347-1.346.52-2.516.517a9.773 9.773 0 0 1-1.832-.161 10.306 10.306 0 0 1-1.497-.398 8.63 8.63 0 0 1-1.103-.466 5.811 5.811 0 0 1-.668-.394L-.023 26.82c.165.11.42.259.771.446.422.222.861.408 1.313.557a12.132 12.132 0 0 0 4.026.66c.856.013 1.71-.09 2.538-.304a5.331 5.331 0 0 0 1.842-.87 3.857 3.857 0 0 0 1.123-1.349 3.94 3.94 0 0 0 .384-1.756c.015-1.151-.349-2.035-1.09-2.652Zm19.68-2.83a4.726 4.726 0 0 0-1.687-.74 9.448 9.448 0 0 0-2.177-.233l-7.638-.052h-2.933v-2.322a5.243 5.243 0 0 0-.416-.13 2.403 2.403 0 0 0-.677-.093 1.398 1.398 0 0 0-.89.256.97.97 0 0 0-.323.821v8.922a3.302 3.302 0 0 0 .91 2.423c.606.614 1.503.921 2.69.921.387.004.773-.033 1.151-.11.325-.066.643-.157.952-.274.25-.092.49-.207.72-.343a6.69 6.69 0 0 0 .454-.307l-.932-1.54c-.226.146-.47.26-.726.343a3.18 3.18 0 0 1-1.093.184 2.894 2.894 0 0 1-.697-.08 1.487 1.487 0 0 1-.587-.285 1.345 1.345 0 0 1-.394-.537 2.195 2.195 0 0 1-.142-.863v-4.851H20l6.648-.214c.42-.003.84.03 1.255.1.344.057.673.181.968.366.277.18.5.433.645.73.167.369.246.77.232 1.175a30.82 30.82 0 0 0-1.032-.09 18.93 18.93 0 0 0-1.455-.05 10.296 10.296 0 0 0-2.258.21 4 4 0 0 0-1.506.648c-.371.265-.66.63-.832 1.054-.176.466-.262.96-.252 1.458 0 .42.072.835.213 1.23.157.419.43.785.787 1.054a4.473 4.473 0 0 0 1.58.73c.846.202 1.713.293 2.581.272.526 0 1.032 0 1.516-.039.484-.038.926-.058 1.316-.093.39-.036.733-.068 1.023-.1a10 10 0 0 0 .645-.091V22.07a4.673 4.673 0 0 0-.393-2.009 3.41 3.41 0 0 0-1.117-1.339Zm-.787 7.907c-.122.03-.364.065-.729.114-.49.054-.984.078-1.477.07a7.172 7.172 0 0 1-1.384-.112 2.48 2.48 0 0 1-.88-.324 1.173 1.173 0 0 1-.455-.517 1.62 1.62 0 0 1-.133-.67 1.454 1.454 0 0 1 .626-1.293c.42-.278 1.087-.417 2.003-.417.557-.01 1.114.018 1.668.08.371.055.626.097.761.123v2.946Zm10.871-8.243a5.167 5.167 0 0 0-2.074-.352c-1.349 0-2.403.34-3.165 1.021-.76.682-1.142 1.645-1.145 2.892v6.548h2.307v-5.879c0-1.675.789-2.514 2.367-2.516.389-.005.776.043 1.152.142.291.079.576.18.852.304.299-.28.48-.664.503-1.073a1.157 1.157 0 0 0-.797-1.087Zm33.128 1.594a3.41 3.41 0 0 0-1.103-1.338 4.724 4.724 0 0 0-1.687-.741 9.437 9.437 0 0 0-2.174-.233h-7.9c-1.349 0-2.403.34-3.165 1.022-.76.686-1.142 1.646-1.142 2.891v4.411h-6.057a6.017 6.017 0 0 1-2-.323 4.512 4.512 0 0 1-1.613-.97 4.487 4.487 0 0 1-1.08-1.582 5.59 5.59 0 0 1-.398-2.18v-.093a6.004 6.004 0 0 1 .375-2.18 4.99 4.99 0 0 1 1.022-1.643 4.34 4.34 0 0 1 1.539-1.034 5.129 5.129 0 0 1 1.935-.353 5.25 5.25 0 0 1 1.316.152c.375.09.74.216 1.09.375.297.133.58.295.843.485.199.146.385.31.554.489.102-.058.197-.126.284-.204.118-.098.226-.206.323-.324.105-.133.194-.278.264-.433a1.18 1.18 0 0 0 .107-.462c-.028-.204-.1-.4-.21-.573a2.313 2.313 0 0 0-.748-.73 4.959 4.959 0 0 0-1.465-.596 9.547 9.547 0 0 0-2.387-.245 8.121 8.121 0 0 0-2.851.497 6.862 6.862 0 0 0-2.339 1.44 6.667 6.667 0 0 0-1.577 2.322 8.067 8.067 0 0 0-.574 3.078 7.667 7.667 0 0 0 .596 3.076 6.467 6.467 0 0 0 1.613 2.264 7.116 7.116 0 0 0 2.358 1.39 8.38 8.38 0 0 0 2.832.476h8.587v-5.86c0-1.675.79-2.514 2.368-2.516l7.483-.2c.42-.005.84.029 1.255.1.344.056.672.18.968.365.277.18.5.433.645.73.167.369.246.77.232 1.175-.229-.026-.57-.055-1.029-.09a18.903 18.903 0 0 0-1.458-.053 10.32 10.32 0 0 0-2.258.214 4.03 4.03 0 0 0-1.506.647 2.41 2.41 0 0 0-.83 1.054c-.178.465-.265.96-.254 1.458 0 .42.072.835.213 1.23.157.42.431.785.79 1.053a4.427 4.427 0 0 0 1.578.731 10.05 10.05 0 0 0 2.58.272c.526 0 1.032 0 1.516-.039s.926-.058 1.316-.094c.39-.035.732-.068 1.023-.1.29-.032.5-.064.645-.09v-6.113a4.667 4.667 0 0 0-.445-2.005Zm-1.897 6.569a9.5 9.5 0 0 1-.729.113c-.49.053-.984.076-1.477.07a7.19 7.19 0 0 1-1.384-.112 2.502 2.502 0 0 1-.88-.324 1.173 1.173 0 0 1-.456-.517 1.685 1.685 0 0 1-.132-.67 1.456 1.456 0 0 1 .626-1.293c.43-.278 1.098-.417 2.003-.417.558-.009 1.116.018 1.671.08.368.055.623.094.758.123v2.947Zm17.193-.628a3.522 3.522 0 0 1-1.822.527 2.894 2.894 0 0 1-.697-.08 1.487 1.487 0 0 1-.587-.285 1.346 1.346 0 0 1-.394-.537 2.193 2.193 0 0 1-.142-.863v-4.528H89.3c.039-.08.094-.22.161-.414a1.92 1.92 0 0 0 .1-.647 1.097 1.097 0 0 0-.27-.802 1.317 1.317 0 0 0-.942-.271h-2.923v-1.485c-.323-3.65-4.906-3.263-4.906-3.263a5.65 5.65 0 0 0-1.668.233 3.495 3.495 0 0 0-1.316.73 3.212 3.212 0 0 0-.858 1.294 5.252 5.252 0 0 0-.303 1.886v10.808h2.303v-8.063h4.445v4.99a3.302 3.302 0 0 0 .91 2.423c.606.614 1.503.921 2.69.921.387.004.775-.033 1.155-.11.322-.066.64-.158.948-.274.25-.092.49-.207.72-.343.193-.123.344-.223.454-.307l-.929-1.54Zm-10.393-7.887v-.608a2.63 2.63 0 0 1 .506-1.724c.339-.408.904-.611 1.7-.611.4-.003.8.053 1.184.165a2.035 2.035 0 0 1 1.055 1.81v.97l-4.445-.002Z"/><path d="M57.33 11.719a.248.248 0 0 0-.322.035l-6.187 6.694a2.835 2.835 0 0 0-2.628 2.066 2.853 2.853 0 0 0 1.15 3.143 2.833 2.833 0 0 0 4.313-1.593 2.852 2.852 0 0 0-.07-1.76l3.831-8.278a.247.247 0 0 0-.087-.307ZM50.663 22.39a1.105 1.105 0 0 1-.834-.904 1.11 1.11 0 0 1 1.132-1.283 1.105 1.105 0 0 1 .997.72c.076.205.09.429.04.642a1.11 1.11 0 0 1-1.335.812v.013ZM66.21 10.574a.388.388 0 0 0-.367-.265H63.64l-.675-2.1a.378.378 0 0 0-.364-.264.383.383 0 0 0-.364.265l-.681 2.099H59.35a.38.38 0 0 0-.367.504.382.382 0 0 0 .144.191l1.787 1.294-.687 2.095a.385.385 0 0 0 .59.43l1.774-1.293 1.774 1.293a.383.383 0 0 0 .594-.43l-.68-2.089 1.79-1.294a.387.387 0 0 0 .142-.436Z"/><path d="M72.523 17.52a20.683 20.683 0 0 0-7.302-11.344 20.591 20.591 0 0 0-12.73-4.409 20.591 20.591 0 0 0-12.729 4.409A20.683 20.683 0 0 0 32.46 17.52h-.968a21.636 21.636 0 0 1 7.6-12.027A21.539 21.539 0 0 1 52.502.807c4.869 0 9.595 1.652 13.41 4.686A21.636 21.636 0 0 1 73.51 17.52h-.987Z"/></g><defs><clipPath id="a"><path fill="#fff" transform="translate(0 .804)" d="M0 0h90v27.692H0z"/></clipPath></defs></svg>