<?xml version="1.0" encoding="UTF-8"?><svg id="_レイヤー_2" xmlns="http://www.w3.org/2000/svg" viewBox="0 0 99.77 150"><defs><style>.cls-1{fill:#fff;}</style></defs><g id="_1"><path class="cls-1" d="M99.56,65.27c-.73-1.98-.52-3.85-1.35-4.74-.82-.89-2.59-2.03-6.09-9.13-3.49-7.1-8.52-11.02-11.21-12.11-.53-1.06-.86-3.9-5.97-6.69-1.09-5.42-6.2-10.69-11.47-10.07-1.86-1.86-5.27-3.87-6.2-4.18-.93-.31-.62-1.71-.62-2.48.77-.46,2.79-4.8,1.24-4.49.78-1.08,2.32-4.49.16-7.44C55.72-1.02,47.36-.24,46.27.69c-1.08.93-1.08,1.86-1.24,2.63,0,0-.12,2.11-.67,3.38-.55,1.28-.55,2.55-.55,2.55,0,0-.54,2.18-.36,3.64.18,1.45,0,2.73-.73,3.27-.73.55-6.91,2.73-7.82,5.09-2.55-1.82-8.55.36-10.92,5.09-4.55,2-8.19,8.37-8.55,12.37-2,4-1.09,3.82,0,5.09.18,2.55,4.55,8.55,8.91,10.55,4.37,2,4.37,3.27,4.37,3.27,0,0,.18,1.46.18,2s-.18,2.91.55,3.64c.73.73,1.82.91,1.82.91,0,0,1.64.36,2.18,0-.73,1.46,1.46,2,1.46,2.73s-4,3.64-7.28,8.92c-3.27,5.27-6.18,18.19-7.1,21.28-.91,3.09-5.82,4.37-8.18,8.73-2.36,4.37-4.18,13.64-4.37,17.46-.18,3.82-2.91,7.46-3.64,9.1-.73,1.64-.18,2.73-.73,3.27s-1.09,1.45-.91,2.55c.18,1.09-2.55,6.55-2.55,6.55,0,0-.36,1.27,0,2.55,0,.91-.36,1.09.91,1.64.18.55,1.28.73,2.73.37.91,1.45,3.46.36,3.46-1.46s1.64-5.64,2.36-8.19c.73-2.55,1.64-2.36.55-3.27,0,0-.18-2.18.36-4.73.55-2.55,8.55-11.28,11.83-14.55,3.27-3.28,4.37-10.01,4.73-10.92.36-.91,3.46-2.36,7.82-5.09,4.36-2.73,15.19-16.01,15.19-16.01,0,5.19,10.83,18.01,10.92,20.19.09,2.19-5,6.55-5.91,9.1-.91,2.55-.91,8.82-.82,12.19.09,3.37-4,13.64-4.19,15.28-.18,1.64-1.45,3-1.18,4.73.27,1.73.91,2.54,3,2.46,2.09-.09,3.09-.46,3.64-.64.55-.18,2.82-.37,4.46.27,1.63.64,4.55-.18,5.46-.09.91.09,2.64-.27,3.09-.82.27-1.45-1.36-1.27-2.64-1.27s-4.91-2.46-6.46-3.55c-1.54-1.09-1.82-3.18-1.73-5.64.09-2.46,4.18-6.46,7.82-12.01,3.64-5.55,5.91-10.73,5.73-14.01-.05-.9.82-3.73,1.55-6.19.73-2.46-.09-5.09-.09-5.09,0,0,0-1.09.09-3.55,4.55-12.46-3.67-24.47-7-27.5.3-4-1.46-7.28-3.09-8.12l-.79-1.33s0-.42.73-1.46c0,0,.54-5.09,0-6.79.06-.6.79-2.79,1.39-5.7.79-.36,1.09-1.76,1.94-4.25.3.79,1.33,2.31,2.67,2.97,0,0,6.97,2.25,8.04,2.98,0,0,.6,2.09,2.34,4.97,1.74,2.88,1.64,3.37,6.7,5.89,5.06,2.52,7.79,4.74,7.93,5.09.14.36-.85,1.14-.91,2.18-.06,1.04.08,2.54.08,2.54,0,0-.41.33-.63.64-.23.32.03,1.58,0,2.19-.03.61.38.22.65.76.27.53.81.32.76.57-.05.25.9.92,1.38.71,0,0-.28.63,1.88.35,2.16-.27,3.4-5.93,2.67-7.9ZM37.45,56.18s-5.46-4.36-6.37-6.55c-.91-2.18,0-6.18-1.82-8.37,0,0,1.45,0,1.82-.73,0,0,.73,4.36,4.73,6.73.72,2.55,2.73,6.73,2.73,6.73l-1.09,2.18Z"/></g></svg>