<?xml version="1.0" encoding="UTF-8"?><svg id="_レイヤー_2" xmlns="http://www.w3.org/2000/svg" viewBox="0 0 94.81 150"><defs><style>.cls-1{fill:#fff;}</style></defs><g id="_1"><path class="cls-1" d="M31.72,46.46c-.76-3.56,2.48-6.58,4.86-6.69.65-6.9,4.96-8.63,8.31-9.06.65-.54,1.73-3.45,2.16-4.96-.32.11-1.73,1.29-2.91,2.16-1.19.86-2.27,0-2.81-.54-.54-.54-1.51-.54-2.16-.97-.65-.11-.54-.54-1.08-.65-.54-.11-.76-1.08-.76-1.08l-.97.54c-.97.54-1.51.22-1.62-.22-.11-.43-.86-3.13-.97-3.67-.11-.54-.86-.76-1.51-.97s-.65-.76-1.08-1.4c-.76-.54-1.94-2.81-2.05-4.32-1.51.86-2.05-1.94-1.94-4.86.09-2.29,2.16-5.72,5.61-7.34,0,0,5.3-3.6,9.49-2.05,6.69,2.48,6.8,7.34,6.91,7.98,0,0,1.51,1.19,2.16,2.16.76.97,2.59,2.27,3.35,2.48,2.7-.97,4.1-1.62,5.39-1.62,2.16-2.91,5.29-3.89,7.01-3.89,3.67-2.59,10.36-.86,13.81,4.64,7.01-.33,9.82,7.33,10.46,10.68,3.13,3.34,3.99,7.33,2.59,9.49.64,2.7-2.37,8.85-4.32,10.36.22,2.91-.32,4.85.11,5.29.43.43.97,6.26,0,8.09.21.86,1.08,2.38,1.08,2.38,0,0,5.61,7.12,2.37,17.69,2.7,6.15,1.73,15.97-1.08,22.22-2.81,6.26-7.23,9.71-7.55,11-.33,1.29-1.51,14.89-3.78,17.48-2.26,2.59-10.14,10.25-10.36,11.76-.21,1.51,0,3.78.54,4.42.54.65,2.7,3.13,4.53,3.88,1.83.76,2.05,1.83,1.73,2.05-.22.43-.97.32-.97.32-.21.43-.97.22-.97.22,0,0-1.19.65-1.62.32-.86,0-1.62.43-3.02,0-1.4-.43-2.7-.65-4.1-1.73-1.4-1.08-1.83-.86-2.59-.86s-1.62-1.51-1.72-2.8c-.11-1.29,1.62-2.91,1.29-3.88-.32-.97-.11-2.81.43-3.13.54-.32,3.78-7.66,3.56-9.28-.21-1.62-.11-5.61-.11-7.23s4.75-7.12,4.75-7.12c1.19-1.29.86-3.45.97-3.88.11-.43.21-1.94.21-2.26s-1.4-6.04-.21-8.2c-1.62-3.34-1.62-15.32-.76-16.51-1.83,3.56-8.31,8.42-9.28,9.06-.86,1.62-10.25,9.92-14.03,10.79-2.16,4.31-.43,9.49-3.56,14.24-3.13,4.75-7.66,7.23-12.19,9.93-4.53,2.7-8.09,9.71-7.98,11.11.11,1.4.75,4.75-.86,5.61-1.62.86-8.63.11-10.03,1.08-1.4.97-6.04,3.34-7.88,3.13-1.83-.22-2.8.21-2.8.21,0,0-2.27.97-3.34-.21-1.08-1.19.11-1.51.86-1.62.76-.75.97-1.29,1.73-1.4.76-.11,3.02-.86,4.1-1.73,1.08-.86,2.81-3.56,3.67-4.1.86-.54,6.37-6.15,7.66-7.55,1.29-1.4,8.74-16.51,10.46-18.56,1.73-2.05,5.83-7.44,6.04-8.2.22-.76,1.94-6.47,2.91-7.34.97-.86.11-7.98,3.13-10.25,1.73-4.42,5.07-12.3,11.44-17.04,6.37-4.75,7.77-5.83,7.77-5.83l1.94-4.1.33-1.83s-.65-2.48-.43-3.13c.22-.65-.11-2.7-.11-2.7,0,0-3.45-.86-4.21-2.16-6.37,0-8.2-.54-9.82-2.05,0,0-1.19,5.93-5.07,7.88-3.88,1.94-5.29,3.02-5.61,3.35-.32.32-3.24,3.45-5.18,3.34-1.83-.22-2.7-.65-2.7-.65,0,0-1.62.54-2.16,0-.54-.54-1.19-2.7-1.19-2.7,0,0-2.91-3.89-3.45-7.77-.54-3.88-.22-11.54-.11-12.84.11-1.29-.97-3.23,1.08-6.69,2.05-3.45,4.1-5.5,4.32-5.93.21-.43.97-.22,1.72,0,.76.22,2.81.65,3.56.75.76.11.76.97.65,1.4.65.11.65,1.3.21,1.73.22.54.22,2.05-.65,2.27,0,.76-.43,1.4-.86,1.94-.43.54-1.73.97-2.37.76-.65-.22-.43,1.08-1.72,1.62-.76,1.08-1.08.97-.76,2.16.32,1.19.76,4.32,1.29,5.4.54,1.08,1.73.97,2.81,2.16Z"/></g></svg>